<?xml version="1.0" encoding="UTF-8" standalone="no"?>
<!DOCTYPE svg PUBLIC "-//W3C//DTD SVG 1.1//EN"
 "http://www.w3.org/Graphics/SVG/1.1/DTD/svg11.dtd">
<!-- Generated by graphviz version 15.0.0 (20260523.1842)
 -->
<!-- Pages: 1 -->
<svg width="250pt" height="740pt"
 viewBox="0.00 0.00 250.00 740.00" xmlns="http://www.w3.org/2000/svg" xmlns:xlink="http://www.w3.org/1999/xlink">
<g id="graph0" class="graph" transform="scale(1 1) rotate(0) translate(4 736.25)">
<polygon fill="white" stroke="none" points="-4,4 -4,-736.25 246,-736.25 246,4 -4,4"/>
<!-- n0 -->
<g id="node1" class="node">
<title>n0</title>
<ellipse fill="none" stroke="black" cx="156" cy="-714.25" rx="27" ry="18"/>
<text xml:space="preserve" text-anchor="middle" x="156" y="-709.8" font-family="Helvetica,sans-Serif" font-size="11.00">Start</text>
</g>
<!-- n1 -->
<g id="node2" class="node">
<title>n1</title>
<polygon fill="none" stroke="black" points="192.63,-665.25 134.36,-665.25 119.37,-629.25 177.64,-629.25 192.63,-665.25"/>
<text xml:space="preserve" text-anchor="middle" x="156" y="-642.8" font-family="Helvetica,sans-Serif" font-size="11.00">read n</text>
</g>
<!-- n0&#45;&gt;n1 -->
<g id="edge1" class="edge">
<title>n0&#45;&gt;n1</title>
<path fill="none" stroke="black" d="M156,-695.83C156,-689.13 156,-681.33 156,-674"/>
<polygon fill="black" stroke="black" points="158.45,-674.23 156,-667.23 153.55,-674.23 158.45,-674.23"/>
</g>
<!-- n2 -->
<g id="node3" class="node">
<title>n2</title>
<polygon fill="none" stroke="black" points="183,-598.25 129,-598.25 129,-562.25 183,-562.25 183,-598.25"/>
<text xml:space="preserve" text-anchor="middle" x="156" y="-575.8" font-family="Helvetica,sans-Serif" font-size="11.00">max = 0</text>
</g>
<!-- n1&#45;&gt;n2 -->
<g id="edge2" class="edge">
<title>n1&#45;&gt;n2</title>
<path fill="none" stroke="black" d="M156,-628.83C156,-622.13 156,-614.33 156,-607"/>
<polygon fill="black" stroke="black" points="158.45,-607.23 156,-600.23 153.55,-607.23 158.45,-607.23"/>
</g>
<!-- n3 -->
<g id="node4" class="node">
<title>n3</title>
<polygon fill="none" stroke="black" points="183,-531.25 129,-531.25 129,-495.25 183,-495.25 183,-531.25"/>
<text xml:space="preserve" text-anchor="middle" x="156" y="-508.8" font-family="Helvetica,sans-Serif" font-size="11.00">min = 9</text>
</g>
<!-- n2&#45;&gt;n3 -->
<g id="edge3" class="edge">
<title>n2&#45;&gt;n3</title>
<path fill="none" stroke="black" d="M156,-561.83C156,-555.13 156,-547.33 156,-540"/>
<polygon fill="black" stroke="black" points="158.45,-540.23 156,-533.23 153.55,-540.23 158.45,-540.23"/>
</g>
<!-- n4 -->
<g id="node5" class="node">
<title>n4</title>
<polygon fill="none" stroke="black" points="156,-464.25 125.68,-446.25 156,-428.25 186.32,-446.25 156,-464.25"/>
<text xml:space="preserve" text-anchor="middle" x="156" y="-441.8" font-family="Helvetica,sans-Serif" font-size="11.00">n &gt; 0</text>
</g>
<!-- n3&#45;&gt;n4 -->
<g id="edge4" class="edge">
<title>n3&#45;&gt;n4</title>
<path fill="none" stroke="black" d="M156,-494.83C156,-488.13 156,-480.33 156,-473"/>
<polygon fill="black" stroke="black" points="158.45,-473.23 156,-466.23 153.55,-473.23 158.45,-473.23"/>
</g>
<!-- n5 -->
<g id="node6" class="node">
<title>n5</title>
<polygon fill="none" stroke="black" points="82.01,-388.5 17.99,-388.5 17.99,-352.5 82.01,-352.5 82.01,-388.5"/>
<text xml:space="preserve" text-anchor="middle" x="50" y="-366.05" font-family="Helvetica,sans-Serif" font-size="11.00">d = n % 10</text>
</g>
<!-- n4&#45;&gt;n5 -->
<g id="edge5" class="edge">
<title>n4&#45;&gt;n5</title>
<path fill="none" stroke="black" d="M142.58,-435.91C127.43,-425.37 102.25,-407.86 81.98,-393.75"/>
<polygon fill="black" stroke="black" points="83.42,-391.77 76.28,-389.78 80.63,-395.79 83.42,-391.77"/>
<text xml:space="preserve" text-anchor="middle" x="116.47" y="-404.7" font-family="Helvetica,sans-Serif" font-size="9.00">Yes</text>
</g>
<!-- n11 -->
<g id="node12" class="node">
<title>n11</title>
<polygon fill="none" stroke="black" points="204.33,-388.5 127.45,-388.5 107.67,-352.5 184.55,-352.5 204.33,-388.5"/>
<text xml:space="preserve" text-anchor="middle" x="156" y="-366.05" font-family="Helvetica,sans-Serif" font-size="11.00">print max</text>
</g>
<!-- n4&#45;&gt;n11 -->
<g id="edge14" class="edge">
<title>n4&#45;&gt;n11</title>
<path fill="none" stroke="black" d="M156,-427.77C156,-418.68 156,-407.39 156,-397.31"/>
<polygon fill="black" stroke="black" points="158.45,-397.37 156,-390.37 153.55,-397.37 158.45,-397.37"/>
<text xml:space="preserve" text-anchor="middle" x="162" y="-404.7" font-family="Helvetica,sans-Serif" font-size="9.00">No</text>
</g>
<!-- n6 -->
<g id="node7" class="node">
<title>n6</title>
<polygon fill="none" stroke="black" points="45,-321.5 2.77,-303.5 45,-285.5 87.23,-303.5 45,-321.5"/>
<text xml:space="preserve" text-anchor="middle" x="45" y="-299.05" font-family="Helvetica,sans-Serif" font-size="11.00">d &gt; max</text>
</g>
<!-- n5&#45;&gt;n6 -->
<g id="edge6" class="edge">
<title>n5&#45;&gt;n6</title>
<path fill="none" stroke="black" d="M48.66,-352.08C48.13,-345.16 47.51,-337.07 46.93,-329.54"/>
<polygon fill="black" stroke="black" points="49.37,-329.37 46.39,-322.58 44.48,-329.75 49.37,-329.37"/>
</g>
<!-- n7 -->
<g id="node8" class="node">
<title>n7</title>
<polygon fill="none" stroke="black" points="54,-245.75 0,-245.75 0,-209.75 54,-209.75 54,-245.75"/>
<text xml:space="preserve" text-anchor="middle" x="27" y="-223.3" font-family="Helvetica,sans-Serif" font-size="11.00">max = d</text>
</g>
<!-- n6&#45;&gt;n7 -->
<g id="edge7" class="edge">
<title>n6&#45;&gt;n7</title>
<path fill="none" stroke="black" d="M41.18,-286.86C38.86,-277.36 35.85,-265 33.19,-254.13"/>
<polygon fill="black" stroke="black" points="35.65,-253.86 31.61,-247.65 30.89,-255.03 35.65,-253.86"/>
<text xml:space="preserve" text-anchor="middle" x="44.2" y="-261.95" font-family="Helvetica,sans-Serif" font-size="9.00">Yes</text>
</g>
<!-- n8 -->
<g id="node9" class="node">
<title>n8</title>
<polygon fill="none" stroke="black" points="104,-178.75 64.28,-160.75 104,-142.75 143.72,-160.75 104,-178.75"/>
<text xml:space="preserve" text-anchor="middle" x="104" y="-156.3" font-family="Helvetica,sans-Serif" font-size="11.00">d &lt; min</text>
</g>
<!-- n6&#45;&gt;n8 -->
<g id="edge9" class="edge">
<title>n6&#45;&gt;n8</title>
<path fill="none" stroke="black" d="M51.2,-287.7C61.59,-262.93 82.55,-212.93 94.7,-183.93"/>
<polygon fill="black" stroke="black" points="96.85,-185.15 97.3,-177.74 92.33,-183.25 96.85,-185.15"/>
<text xml:space="preserve" text-anchor="middle" x="89.23" y="-224.07" font-family="Helvetica,sans-Serif" font-size="9.00">No</text>
</g>
<!-- n7&#45;&gt;n8 -->
<g id="edge8" class="edge">
<title>n7&#45;&gt;n8</title>
<path fill="none" stroke="black" d="M47.63,-209.33C59.1,-199.65 73.29,-187.67 84.56,-178.16"/>
<polygon fill="black" stroke="black" points="85.9,-180.24 89.66,-173.85 82.73,-176.49 85.9,-180.24"/>
</g>
<!-- n9 -->
<g id="node10" class="node">
<title>n9</title>
<polygon fill="none" stroke="black" points="131,-103 77,-103 77,-67 131,-67 131,-103"/>
<text xml:space="preserve" text-anchor="middle" x="104" y="-80.55" font-family="Helvetica,sans-Serif" font-size="11.00">min = d</text>
</g>
<!-- n8&#45;&gt;n9 -->
<g id="edge10" class="edge">
<title>n8&#45;&gt;n9</title>
<path fill="none" stroke="black" d="M104,-142.27C104,-133.18 104,-121.89 104,-111.81"/>
<polygon fill="black" stroke="black" points="106.45,-111.87 104,-104.87 101.55,-111.87 106.45,-111.87"/>
<text xml:space="preserve" text-anchor="middle" x="111.12" y="-119.2" font-family="Helvetica,sans-Serif" font-size="9.00">Yes</text>
</g>
<!-- n10 -->
<g id="node11" class="node">
<title>n10</title>
<polygon fill="none" stroke="black" points="211.13,-36 150.87,-36 150.87,0 211.13,0 211.13,-36"/>
<text xml:space="preserve" text-anchor="middle" x="181" y="-13.55" font-family="Helvetica,sans-Serif" font-size="11.00">n = n // 10</text>
</g>
<!-- n8&#45;&gt;n10 -->
<g id="edge12" class="edge">
<title>n8&#45;&gt;n10</title>
<path fill="none" stroke="black" d="M113.98,-147.16C122.57,-135.97 134.98,-118.95 144,-103 154.78,-83.92 164.66,-61.11 171.49,-44.07"/>
<polygon fill="black" stroke="black" points="173.74,-45.03 174.03,-37.62 169.18,-43.23 173.74,-45.03"/>
<text xml:space="preserve" text-anchor="middle" x="167.41" y="-81.33" font-family="Helvetica,sans-Serif" font-size="9.00">No</text>
</g>
<!-- n9&#45;&gt;n10 -->
<g id="edge11" class="edge">
<title>n9&#45;&gt;n10</title>
<path fill="none" stroke="black" d="M124.63,-66.58C133.61,-59 144.25,-50.02 153.86,-41.91"/>
<polygon fill="black" stroke="black" points="155.38,-43.83 159.15,-37.44 152.22,-40.09 155.38,-43.83"/>
</g>
<!-- n10&#45;&gt;n4 -->
<g id="edge13" class="edge">
<title>n10&#45;&gt;n4</title>
<path fill="none" stroke="black" d="M211.14,-36.38C226.51,-47.69 242,-64.04 242,-84 242,-371.5 242,-371.5 242,-371.5 242,-403.27 207.77,-424.31 182.5,-435.51"/>
<polygon fill="black" stroke="black" points="181.56,-433.25 176.06,-438.22 183.46,-437.76 181.56,-433.25"/>
</g>
<!-- n12 -->
<g id="node13" class="node">
<title>n12</title>
<polygon fill="none" stroke="black" points="203.73,-321.5 130.98,-321.5 112.27,-285.5 185.02,-285.5 203.73,-321.5"/>
<text xml:space="preserve" text-anchor="middle" x="158" y="-299.05" font-family="Helvetica,sans-Serif" font-size="11.00">print min</text>
</g>
<!-- n11&#45;&gt;n12 -->
<g id="edge15" class="edge">
<title>n11&#45;&gt;n12</title>
<path fill="none" stroke="black" d="M156.54,-352.08C156.74,-345.38 156.98,-337.58 157.21,-330.25"/>
<polygon fill="black" stroke="black" points="159.65,-330.55 157.42,-323.48 154.75,-330.4 159.65,-330.55"/>
</g>
<!-- n13 -->
<g id="node14" class="node">
<title>n13</title>
<ellipse fill="none" stroke="black" cx="168" cy="-227.75" rx="27" ry="18"/>
<text xml:space="preserve" text-anchor="middle" x="168" y="-223.3" font-family="Helvetica,sans-Serif" font-size="11.00">End</text>
</g>
<!-- n12&#45;&gt;n13 -->
<g id="edge16" class="edge">
<title>n12&#45;&gt;n13</title>
<path fill="none" stroke="black" d="M160.37,-285.02C161.62,-275.84 163.16,-264.41 164.54,-254.25"/>
<polygon fill="black" stroke="black" points="166.93,-254.87 165.44,-247.6 162.08,-254.21 166.93,-254.87"/>
</g>
</g>
</svg>
