<?xml version="1.0" encoding="utf-8" standalone="no"?>
<!DOCTYPE svg PUBLIC "-//W3C//DTD SVG 1.1//EN"
  "http://www.w3.org/Graphics/SVG/1.1/DTD/svg11.dtd">
<svg xmlns:xlink="http://www.w3.org/1999/xlink" width="249.948pt" height="135.36pt" viewBox="0 0 249.948 135.36" xmlns="http://www.w3.org/2000/svg" version="1.1">
 <metadata>
  <rdf:RDF xmlns:dc="http://purl.org/dc/elements/1.1/" xmlns:cc="http://creativecommons.org/ns#" xmlns:rdf="http://www.w3.org/1999/02/22-rdf-syntax-ns#">
   <cc:Work>
    <dc:type rdf:resource="http://purl.org/dc/dcmitype/StillImage"/>
    <dc:date>2026-06-04T06:35:33.920894</dc:date>
    <dc:format>image/svg+xml</dc:format>
    <dc:creator>
     <cc:Agent>
      <dc:title>Matplotlib v3.10.9, https://matplotlib.org/</dc:title>
     </cc:Agent>
    </dc:creator>
   </cc:Work>
  </rdf:RDF>
 </metadata>
 <defs>
  <style type="text/css">*{stroke-linejoin: round; stroke-linecap: butt}</style>
 </defs>
 <g id="figure_1">
  <g id="patch_1">
   <path d="M 0 135.36 
L 249.948 135.36 
L 249.948 0 
L 0 0 
L 0 135.36 
z
" style="fill: none"/>
  </g>
  <g id="axes_1">
   <g id="patch_2">
    <path d="M 63.96 49.5 
C 65.105677 49.5 66.204585 49.044818 67.014701 48.234701 
C 67.824818 47.424585 68.28 46.325677 68.28 45.18 
C 68.28 44.034323 67.824818 42.935415 67.014701 42.125299 
C 66.204585 41.315182 65.105677 40.86 63.96 40.86 
C 62.814323 40.86 61.715415 41.315182 60.905299 42.125299 
C 60.095182 42.935415 59.64 44.034323 59.64 45.18 
C 59.64 46.325677 60.095182 47.424585 60.905299 48.234701 
C 61.715415 49.044818 62.814323 49.5 63.96 49.5 
L 63.96 49.5 
z
" clip-path="url(#pdeda04503e)" style="fill: none; stroke: #000000; stroke-linejoin: miter"/>
   </g>
   <g id="patch_3">
    <path d="M 63.96 94.5 
C 65.105677 94.5 66.204585 94.044818 67.014701 93.234701 
C 67.824818 92.424585 68.28 91.325677 68.28 90.18 
C 68.28 89.034323 67.824818 87.935415 67.014701 87.125299 
C 66.204585 86.315182 65.105677 85.86 63.96 85.86 
C 62.814323 85.86 61.715415 86.315182 60.905299 87.125299 
C 60.095182 87.935415 59.64 89.034323 59.64 90.18 
C 59.64 91.325677 60.095182 92.424585 60.905299 93.234701 
C 61.715415 94.044818 62.814323 94.5 63.96 94.5 
L 63.96 94.5 
z
" clip-path="url(#pdeda04503e)" style="fill: none; stroke: #000000; stroke-linejoin: miter"/>
   </g>
   <g id="line2d_1">
    <path d="M 176.46 85.32 
L 196.002857 85.253878 
L 198.06 84.96 
L 200.117143 84.43102 
L 202.174286 83.666939 
L 204.231429 82.667755 
L 206.288571 81.433469 
L 208.345714 79.964082 
L 210.402857 78.259592 
L 212.974286 75.798367 
L 215.545714 72.969796 
L 218.117143 69.773878 
L 219.66 67.68 
L 219.66 67.68 
L 217.088571 64.263673 
L 214.517143 61.214694 
L 211.945714 58.533061 
L 209.374286 56.218776 
L 207.317143 54.631837 
L 205.26 53.28 
L 203.202857 52.163265 
L 201.145714 51.281633 
L 199.088571 50.635102 
L 197.031429 50.223673 
L 194.974286 50.047347 
L 194.46 50.04 
L 176.46 50.04 
L 176.46 50.04 
L 178.4472 52.2 
L 180.1752 54.36 
L 181.644 56.52 
L 182.8536 58.68 
L 183.804 60.84 
L 184.4952 63 
L 184.9272 65.16 
L 185.1 67.32 
L 185.0136 69.48 
L 184.668 71.64 
L 184.0632 73.8 
L 183.1992 75.96 
L 182.076 78.12 
L 180.6936 80.28 
L 179.052 82.44 
L 177.1512 84.6 
L 176.46 85.32 
L 176.46 85.32 
" clip-path="url(#pdeda04503e)" style="fill: none; stroke: #000000; stroke-linecap: round"/>
   </g>
   <g id="line2d_2">
    <path d="M 163.86 76.68 
L 182.8536 76.68 
" clip-path="url(#pdeda04503e)" style="fill: none; stroke: #000000; stroke-linecap: round"/>
   </g>
   <g id="line2d_3">
    <path d="M 163.86 58.68 
L 182.8536 58.68 
" clip-path="url(#pdeda04503e)" style="fill: none; stroke: #000000; stroke-linecap: round"/>
   </g>
   <g id="line2d_4">
    <path d="M 219.66 67.68 
L 232.26 67.68 
" clip-path="url(#pdeda04503e)" style="fill: none; stroke: #000000; stroke-linecap: round"/>
   </g>
   <g id="line2d_5">
    <path d="M 129.66 40.68 
L 130.813264 40.643017 
L 131.961789 40.53222 
L 133.100855 40.348065 
L 134.225783 40.091308 
L 135.331948 39.763003 
L 136.414806 39.364502 
L 137.469907 38.89744 
L 138.492916 38.363737 
L 139.479628 37.765586 
L 140.42599 37.105445 
L 141.328111 36.386027 
L 142.182286 35.610288 
L 142.985004 34.781416 
L 143.732967 33.902816 
L 144.423101 32.9781 
L 145.05257 32.011066 
L 145.618788 31.005689 
L 146.119427 29.9661 
L 146.552432 28.896571 
L 146.916021 27.801497 
L 147.208702 26.685377 
L 147.429272 25.552798 
L 147.576824 24.408414 
L 147.650752 23.256928 
L 147.650752 22.103072 
L 147.576824 20.951586 
L 147.429272 19.807202 
L 147.208702 18.674623 
L 146.916021 17.558503 
L 146.552432 16.463429 
L 146.119427 15.3939 
L 145.618788 14.354311 
L 145.05257 13.348934 
L 144.423101 12.3819 
L 143.732967 11.457184 
L 142.985004 10.578584 
L 142.182286 9.749712 
L 141.328111 8.973973 
L 140.42599 8.254555 
L 139.479628 7.594414 
L 138.492916 6.996263 
L 137.469907 6.46256 
L 136.414806 5.995498 
L 135.331948 5.596997 
L 134.225783 5.268692 
L 133.100855 5.011935 
L 131.961789 4.82778 
L 130.813264 4.716983 
L 129.66 4.68 
L 129.66 4.68 
L 106.26 4.68 
L 106.26 22.68 
L 106.26 40.68 
L 129.66 40.68 
" clip-path="url(#pdeda04503e)" style="fill: none; stroke: #000000; stroke-linecap: round"/>
   </g>
   <g id="line2d_6">
    <path d="M 93.66 31.68 
L 106.26 31.68 
" clip-path="url(#pdeda04503e)" style="fill: none; stroke: #000000; stroke-linecap: round"/>
   </g>
   <g id="line2d_7">
    <path d="M 93.66 13.68 
L 106.26 13.68 
" clip-path="url(#pdeda04503e)" style="fill: none; stroke: #000000; stroke-linecap: round"/>
   </g>
   <g id="line2d_8">
    <path d="M 147.66 22.68 
L 160.26 22.68 
" clip-path="url(#pdeda04503e)" style="fill: none; stroke: #000000; stroke-linecap: round"/>
   </g>
   <g id="line2d_9">
    <path d="M 16.26 45.18 
L 36.24 45.18 
M 68.28 45.18 
L 88.26 45.18 
" clip-path="url(#pdeda04503e)" style="fill: none; stroke: #000000; stroke-linecap: round"/>
   </g>
   <g id="line2d_10">
    <path d="M 36.24 27.18 
L 59.64 45.18 
L 36.24 63.18 
L 36.24 27.18 
" clip-path="url(#pdeda04503e)" style="fill: none; stroke: #000000; stroke-linecap: round"/>
   </g>
   <g id="line2d_11">
    <path d="M 93.66 31.68 
L 88.26 31.68 
L 88.26 45.18 
" clip-path="url(#pdeda04503e)" style="fill: none; stroke: #000000; stroke-linecap: round"/>
   </g>
   <g id="line2d_12">
    <path d="M 163.86 58.68 
L 160.26 58.68 
L 160.26 22.68 
" clip-path="url(#pdeda04503e)" style="fill: none; stroke: #000000; stroke-linecap: round"/>
   </g>
   <g id="line2d_13">
    <path d="M 129.66 130.68 
L 130.813264 130.643017 
L 131.961789 130.53222 
L 133.100855 130.348065 
L 134.225783 130.091308 
L 135.331948 129.763003 
L 136.414806 129.364502 
L 137.469907 128.89744 
L 138.492916 128.363737 
L 139.479628 127.765586 
L 140.42599 127.105445 
L 141.328111 126.386027 
L 142.182286 125.610288 
L 142.985004 124.781416 
L 143.732967 123.902816 
L 144.423101 122.9781 
L 145.05257 122.011066 
L 145.618788 121.005689 
L 146.119427 119.9661 
L 146.552432 118.896571 
L 146.916021 117.801497 
L 147.208702 116.685377 
L 147.429272 115.552798 
L 147.576824 114.408414 
L 147.650752 113.256928 
L 147.650752 112.103072 
L 147.576824 110.951586 
L 147.429272 109.807202 
L 147.208702 108.674623 
L 146.916021 107.558503 
L 146.552432 106.463429 
L 146.119427 105.3939 
L 145.618788 104.354311 
L 145.05257 103.348934 
L 144.423101 102.3819 
L 143.732967 101.457184 
L 142.985004 100.578584 
L 142.182286 99.749712 
L 141.328111 98.973973 
L 140.42599 98.254555 
L 139.479628 97.594414 
L 138.492916 96.996263 
L 137.469907 96.46256 
L 136.414806 95.995498 
L 135.331948 95.596997 
L 134.225783 95.268692 
L 133.100855 95.011935 
L 131.961789 94.82778 
L 130.813264 94.716983 
L 129.66 94.68 
L 129.66 94.68 
L 106.26 94.68 
L 106.26 112.68 
L 106.26 130.68 
L 129.66 130.68 
" clip-path="url(#pdeda04503e)" style="fill: none; stroke: #000000; stroke-linecap: round"/>
   </g>
   <g id="line2d_14">
    <path d="M 93.66 121.68 
L 106.26 121.68 
" clip-path="url(#pdeda04503e)" style="fill: none; stroke: #000000; stroke-linecap: round"/>
   </g>
   <g id="line2d_15">
    <path d="M 93.66 103.68 
L 106.26 103.68 
" clip-path="url(#pdeda04503e)" style="fill: none; stroke: #000000; stroke-linecap: round"/>
   </g>
   <g id="line2d_16">
    <path d="M 147.66 112.68 
L 160.26 112.68 
" clip-path="url(#pdeda04503e)" style="fill: none; stroke: #000000; stroke-linecap: round"/>
   </g>
   <g id="line2d_17">
    <path d="M 16.26 90.18 
L 36.24 90.18 
M 68.28 90.18 
L 88.26 90.18 
" clip-path="url(#pdeda04503e)" style="fill: none; stroke: #000000; stroke-linecap: round"/>
   </g>
   <g id="line2d_18">
    <path d="M 36.24 72.18 
L 59.64 90.18 
L 36.24 108.18 
L 36.24 72.18 
" clip-path="url(#pdeda04503e)" style="fill: none; stroke: #000000; stroke-linecap: round"/>
   </g>
   <g id="line2d_19">
    <path d="M 93.66 103.68 
L 88.26 103.68 
L 88.26 90.18 
" clip-path="url(#pdeda04503e)" style="fill: none; stroke: #000000; stroke-linecap: round"/>
   </g>
   <g id="line2d_20">
    <path d="M 163.86 76.68 
L 160.26 76.68 
L 160.26 112.68 
" clip-path="url(#pdeda04503e)" style="fill: none; stroke: #000000; stroke-linecap: round"/>
   </g>
   <g id="text_1">
    <!-- Y -->
    <g transform="translate(235.86 71.543125) scale(0.14 -0.14)">
     <defs>
      <path id="DejaVuSans-59" d="M -13 4666 
L 666 4666 
L 1959 2747 
L 3244 4666 
L 3922 4666 
L 2272 2222 
L 2272 0 
L 1638 0 
L 1638 2222 
L -13 4666 
z
" transform="scale(0.015625)"/>
     </defs>
     <use xlink:href="#DejaVuSans-59"/>
    </g>
   </g>
   <g id="text_2">
    <!-- a -->
    <g transform="translate(81.480625 17.543125) scale(0.14 -0.14)">
     <defs>
      <path id="DejaVuSans-61" d="M 2194 1759 
Q 1497 1759 1228 1600 
Q 959 1441 959 1056 
Q 959 750 1161 570 
Q 1363 391 1709 391 
Q 2188 391 2477 730 
Q 2766 1069 2766 1631 
L 2766 1759 
L 2194 1759 
z
M 3341 1997 
L 3341 0 
L 2766 0 
L 2766 531 
Q 2569 213 2275 61 
Q 1981 -91 1556 -91 
Q 1019 -91 701 211 
Q 384 513 384 1019 
Q 384 1609 779 1909 
Q 1175 2209 1959 2209 
L 2766 2209 
L 2766 2266 
Q 2766 2663 2505 2880 
Q 2244 3097 1772 3097 
Q 1472 3097 1187 3025 
Q 903 2953 641 2809 
L 641 3341 
Q 956 3463 1253 3523 
Q 1550 3584 1831 3584 
Q 2591 3584 2966 3190 
Q 3341 2797 3341 1997 
z
" transform="scale(0.015625)"/>
     </defs>
     <use xlink:href="#DejaVuSans-61"/>
    </g>
   </g>
   <g id="text_3">
    <!-- b -->
    <g transform="translate(3.772187 49.043125) scale(0.14 -0.14)">
     <defs>
      <path id="DejaVuSans-62" d="M 3116 1747 
Q 3116 2381 2855 2742 
Q 2594 3103 2138 3103 
Q 1681 3103 1420 2742 
Q 1159 2381 1159 1747 
Q 1159 1113 1420 752 
Q 1681 391 2138 391 
Q 2594 391 2855 752 
Q 3116 1113 3116 1747 
z
M 1159 2969 
Q 1341 3281 1617 3432 
Q 1894 3584 2278 3584 
Q 2916 3584 3314 3078 
Q 3713 2572 3713 1747 
Q 3713 922 3314 415 
Q 2916 -91 2278 -91 
Q 1894 -91 1617 61 
Q 1341 213 1159 525 
L 1159 0 
L 581 0 
L 581 4863 
L 1159 4863 
L 1159 2969 
z
" transform="scale(0.015625)"/>
     </defs>
     <use xlink:href="#DejaVuSans-62"/>
    </g>
   </g>
   <g id="text_4">
    <!-- b -->
    <g transform="translate(81.172187 125.543125) scale(0.14 -0.14)">
     <use xlink:href="#DejaVuSans-62"/>
    </g>
   </g>
   <g id="text_5">
    <!-- a -->
    <g transform="translate(4.080625 94.043125) scale(0.14 -0.14)">
     <use xlink:href="#DejaVuSans-61"/>
    </g>
   </g>
  </g>
 </g>
 <defs>
  <clipPath id="pdeda04503e">
   <rect x="0" y="0" width="249.948" height="135.36"/>
  </clipPath>
 </defs>
</svg>
