<?xml version="1.0" encoding="UTF-8" standalone="no"?>
<!DOCTYPE svg PUBLIC "-//W3C//DTD SVG 1.1//EN"
 "http://www.w3.org/Graphics/SVG/1.1/DTD/svg11.dtd">
<!-- Generated by graphviz version 15.0.0 (20260523.1842)
 -->
<!-- Pages: 1 -->
<svg width="622pt" height="441pt"
 viewBox="0.00 0.00 622.00 441.00" xmlns="http://www.w3.org/2000/svg" xmlns:xlink="http://www.w3.org/1999/xlink">
<g id="graph0" class="graph" transform="scale(1 1) rotate(0) translate(4 437.25)">
<polygon fill="white" stroke="none" points="-4,4 -4,-437.25 618,-437.25 618,4 -4,4"/>
<!-- n0 -->
<g id="node1" class="node">
<title>n0</title>
<ellipse fill="none" stroke="black" cx="245" cy="-415.25" rx="27" ry="18"/>
<text xml:space="preserve" text-anchor="middle" x="245" y="-410.8" font-family="Helvetica,sans-Serif" font-size="11.00">Start</text>
</g>
<!-- n1 -->
<g id="node2" class="node">
<title>n1</title>
<polygon fill="none" stroke="black" points="272,-380.25 218,-380.25 218,-344.25 272,-344.25 272,-380.25"/>
<text xml:space="preserve" text-anchor="middle" x="245" y="-357.8" font-family="Helvetica,sans-Serif" font-size="11.00">i = 0</text>
</g>
<!-- n0&#45;&gt;n1 -->
<g id="edge1" class="edge">
<title>n0&#45;&gt;n1</title>
<path fill="none" stroke="black" d="M245,-396.98C245,-394.41 245,-391.71 245,-389"/>
<polygon fill="black" stroke="black" points="247.45,-389.01 245,-382.01 242.55,-389.01 247.45,-389.01"/>
</g>
<!-- n2 -->
<g id="node3" class="node">
<title>n2</title>
<polygon fill="none" stroke="black" points="272,-327.25 218,-327.25 218,-291.25 272,-291.25 272,-327.25"/>
<text xml:space="preserve" text-anchor="middle" x="245" y="-304.8" font-family="Helvetica,sans-Serif" font-size="11.00">j = 0</text>
</g>
<!-- n1&#45;&gt;n2 -->
<g id="edge2" class="edge">
<title>n1&#45;&gt;n2</title>
<path fill="none" stroke="black" d="M245,-343.98C245,-341.41 245,-338.71 245,-336"/>
<polygon fill="black" stroke="black" points="247.45,-336.01 245,-329.01 242.55,-336.01 247.45,-336.01"/>
</g>
<!-- n3 -->
<g id="node4" class="node">
<title>n3</title>
<polygon fill="none" stroke="black" points="245,-274.25 180.2,-256.25 245,-238.25 309.8,-256.25 245,-274.25"/>
<text xml:space="preserve" text-anchor="middle" x="245" y="-251.8" font-family="Helvetica,sans-Serif" font-size="11.00">i &lt; 3 and j &lt; 3</text>
</g>
<!-- n2&#45;&gt;n3 -->
<g id="edge3" class="edge">
<title>n2&#45;&gt;n3</title>
<path fill="none" stroke="black" d="M245,-290.98C245,-288.41 245,-285.71 245,-283"/>
<polygon fill="black" stroke="black" points="247.45,-283.01 245,-276.01 242.55,-283.01 247.45,-283.01"/>
</g>
<!-- n4 -->
<g id="node5" class="node">
<title>n4</title>
<polygon fill="none" stroke="black" points="185,-212.5 138.38,-194.5 185,-176.5 231.62,-194.5 185,-212.5"/>
<text xml:space="preserve" text-anchor="middle" x="185" y="-190.05" font-family="Helvetica,sans-Serif" font-size="11.00">A[i] &lt; B[j]</text>
</g>
<!-- n3&#45;&gt;n4 -->
<g id="edge4" class="edge">
<title>n3&#45;&gt;n4</title>
<path fill="none" stroke="black" d="M231.39,-241.69C223.07,-233.41 212.33,-222.72 203.28,-213.71"/>
<polygon fill="black" stroke="black" points="205.1,-212.06 198.41,-208.85 201.64,-215.53 205.1,-212.06"/>
<text xml:space="preserve" text-anchor="middle" x="225.72" y="-221.7" font-family="Helvetica,sans-Serif" font-size="9.00">Yes</text>
</g>
<!-- n9 -->
<g id="node10" class="node">
<title>n9</title>
<polygon fill="none" stroke="black" points="393,-212.5 365.82,-194.5 393,-176.5 420.18,-194.5 393,-212.5"/>
<text xml:space="preserve" text-anchor="middle" x="393" y="-190.05" font-family="Helvetica,sans-Serif" font-size="11.00">i &lt; 3</text>
</g>
<!-- n3&#45;&gt;n9 -->
<g id="edge11" class="edge">
<title>n3&#45;&gt;n9</title>
<path fill="none" stroke="black" d="M270.44,-244.98C298,-233.85 341.66,-216.23 368.75,-205.29"/>
<polygon fill="black" stroke="black" points="369.61,-207.59 375.18,-202.69 367.78,-203.04 369.61,-207.59"/>
<text xml:space="preserve" text-anchor="middle" x="333.86" y="-221.7" font-family="Helvetica,sans-Serif" font-size="9.00">No</text>
</g>
<!-- n5 -->
<g id="node6" class="node">
<title>n5</title>
<polygon fill="none" stroke="black" points="121.78,-150.75 52.13,-150.75 34.22,-114.75 103.87,-114.75 121.78,-150.75"/>
<text xml:space="preserve" text-anchor="middle" x="78" y="-128.3" font-family="Helvetica,sans-Serif" font-size="11.00">print A[i]</text>
</g>
<!-- n4&#45;&gt;n5 -->
<g id="edge5" class="edge">
<title>n4&#45;&gt;n5</title>
<path fill="none" stroke="black" d="M166.85,-183.36C153.08,-175.67 133.64,-164.82 116.47,-155.23"/>
<polygon fill="black" stroke="black" points="117.89,-153.22 110.58,-151.95 115.5,-157.5 117.89,-153.22"/>
<text xml:space="preserve" text-anchor="middle" x="145.03" y="-159.95" font-family="Helvetica,sans-Serif" font-size="9.00">Yes</text>
</g>
<!-- n7 -->
<g id="node8" class="node">
<title>n7</title>
<polygon fill="none" stroke="black" points="232.43,-150.75 161.75,-150.75 143.57,-114.75 214.25,-114.75 232.43,-150.75"/>
<text xml:space="preserve" text-anchor="middle" x="188" y="-128.3" font-family="Helvetica,sans-Serif" font-size="11.00">print B[j]</text>
</g>
<!-- n4&#45;&gt;n7 -->
<g id="edge7" class="edge">
<title>n4&#45;&gt;n7</title>
<path fill="none" stroke="black" d="M185.85,-176.54C186.12,-171.16 186.43,-165.09 186.72,-159.25"/>
<polygon fill="black" stroke="black" points="189.16,-159.59 187.06,-152.47 184.26,-159.34 189.16,-159.59"/>
<text xml:space="preserve" text-anchor="middle" x="192.68" y="-159.95" font-family="Helvetica,sans-Serif" font-size="9.00">No</text>
</g>
<!-- n6 -->
<g id="node7" class="node">
<title>n6</title>
<polygon fill="none" stroke="black" points="54,-89 0,-89 0,-53 54,-53 54,-89"/>
<text xml:space="preserve" text-anchor="middle" x="27" y="-66.55" font-family="Helvetica,sans-Serif" font-size="11.00">i = i + 1</text>
</g>
<!-- n5&#45;&gt;n6 -->
<g id="edge6" class="edge">
<title>n5&#45;&gt;n6</title>
<path fill="none" stroke="black" d="M63.25,-114.47C58.22,-108.57 52.5,-101.88 47.13,-95.58"/>
<polygon fill="black" stroke="black" points="49.29,-94.34 42.88,-90.6 45.56,-97.52 49.29,-94.34"/>
</g>
<!-- n6&#45;&gt;n3 -->
<g id="edge9" class="edge">
<title>n6&#45;&gt;n3</title>
<path fill="none" stroke="black" d="M21.07,-89.2C16.38,-106.04 12.23,-131.83 23,-150.75 57.78,-211.84 139.97,-237.6 194,-248.19"/>
<polygon fill="black" stroke="black" points="193.27,-250.54 200.6,-249.42 194.17,-245.72 193.27,-250.54"/>
</g>
<!-- n8 -->
<g id="node9" class="node">
<title>n8</title>
<polygon fill="none" stroke="black" points="266,-89 212,-89 212,-53 266,-53 266,-89"/>
<text xml:space="preserve" text-anchor="middle" x="239" y="-66.55" font-family="Helvetica,sans-Serif" font-size="11.00">j = j + 1</text>
</g>
<!-- n7&#45;&gt;n8 -->
<g id="edge8" class="edge">
<title>n7&#45;&gt;n8</title>
<path fill="none" stroke="black" d="M202.75,-114.47C207.78,-108.57 213.5,-101.88 218.87,-95.58"/>
<polygon fill="black" stroke="black" points="220.44,-97.52 223.12,-90.6 216.71,-94.34 220.44,-97.52"/>
</g>
<!-- n8&#45;&gt;n3 -->
<g id="edge10" class="edge">
<title>n8&#45;&gt;n3</title>
<path fill="none" stroke="black" d="M240.95,-89.45C241.73,-97.19 242.55,-106.41 243,-114.75 245.15,-154.75 245.37,-201.25 245.24,-229.45"/>
<polygon fill="black" stroke="black" points="242.79,-229.4 245.2,-236.42 247.69,-229.43 242.79,-229.4"/>
</g>
<!-- n10 -->
<g id="node11" class="node">
<title>n10</title>
<polygon fill="none" stroke="black" points="387.78,-150.75 318.13,-150.75 300.22,-114.75 369.87,-114.75 387.78,-150.75"/>
<text xml:space="preserve" text-anchor="middle" x="344" y="-128.3" font-family="Helvetica,sans-Serif" font-size="11.00">print A[i]</text>
</g>
<!-- n9&#45;&gt;n10 -->
<g id="edge12" class="edge">
<title>n9&#45;&gt;n10</title>
<path fill="none" stroke="black" d="M383.78,-182.26C378.04,-175.26 370.43,-165.98 363.4,-157.41"/>
<polygon fill="black" stroke="black" points="365.48,-156.08 359.15,-152.22 361.69,-159.19 365.48,-156.08"/>
<text xml:space="preserve" text-anchor="middle" x="378.56" y="-159.95" font-family="Helvetica,sans-Serif" font-size="9.00">Yes</text>
</g>
<!-- n12 -->
<g id="node13" class="node">
<title>n12</title>
<polygon fill="none" stroke="black" points="506,-150.75 478.82,-132.75 506,-114.75 533.18,-132.75 506,-150.75"/>
<text xml:space="preserve" text-anchor="middle" x="506" y="-128.3" font-family="Helvetica,sans-Serif" font-size="11.00">j &lt; 3</text>
</g>
<!-- n9&#45;&gt;n12 -->
<g id="edge15" class="edge">
<title>n9&#45;&gt;n12</title>
<path fill="none" stroke="black" d="M407.77,-185.69C427.15,-175.45 461.3,-157.38 483.8,-145.49"/>
<polygon fill="black" stroke="black" points="484.84,-147.71 489.89,-142.27 482.55,-143.38 484.84,-147.71"/>
<text xml:space="preserve" text-anchor="middle" x="462.27" y="-159.95" font-family="Helvetica,sans-Serif" font-size="9.00">No</text>
</g>
<!-- n11 -->
<g id="node12" class="node">
<title>n11</title>
<polygon fill="none" stroke="black" points="386,-89 332,-89 332,-53 386,-53 386,-89"/>
<text xml:space="preserve" text-anchor="middle" x="359" y="-66.55" font-family="Helvetica,sans-Serif" font-size="11.00">i = i + 1</text>
</g>
<!-- n10&#45;&gt;n11 -->
<g id="edge13" class="edge">
<title>n10&#45;&gt;n11</title>
<path fill="none" stroke="black" d="M348.34,-114.47C349.66,-109.19 351.15,-103.27 352.58,-97.56"/>
<polygon fill="black" stroke="black" points="354.92,-98.3 354.25,-90.92 350.17,-97.11 354.92,-98.3"/>
</g>
<!-- n11&#45;&gt;n9 -->
<g id="edge14" class="edge">
<title>n11&#45;&gt;n9</title>
<path fill="none" stroke="black" d="M380.88,-89.33C388.07,-96.36 395.19,-105.11 399,-114.75 406.16,-132.89 403.52,-155.17 399.75,-171.4"/>
<polygon fill="black" stroke="black" points="397.47,-170.43 398.1,-177.82 402.21,-171.65 397.47,-170.43"/>
</g>
<!-- n13 -->
<g id="node14" class="node">
<title>n13</title>
<polygon fill="none" stroke="black" points="592.43,-89 521.75,-89 503.57,-53 574.25,-53 592.43,-89"/>
<text xml:space="preserve" text-anchor="middle" x="548" y="-66.55" font-family="Helvetica,sans-Serif" font-size="11.00">print B[j]</text>
</g>
<!-- n12&#45;&gt;n13 -->
<g id="edge16" class="edge">
<title>n12&#45;&gt;n13</title>
<path fill="none" stroke="black" d="M514.3,-119.95C519.08,-113.14 525.27,-104.34 531.03,-96.14"/>
<polygon fill="black" stroke="black" points="532.85,-97.82 534.87,-90.68 528.84,-95 532.85,-97.82"/>
<text xml:space="preserve" text-anchor="middle" x="536.64" y="-98.2" font-family="Helvetica,sans-Serif" font-size="9.00">Yes</text>
</g>
<!-- n15 -->
<g id="node16" class="node">
<title>n15</title>
<ellipse fill="none" stroke="black" cx="455" cy="-71" rx="27" ry="18"/>
<text xml:space="preserve" text-anchor="middle" x="455" y="-66.55" font-family="Helvetica,sans-Serif" font-size="11.00">End</text>
</g>
<!-- n12&#45;&gt;n15 -->
<g id="edge19" class="edge">
<title>n12&#45;&gt;n15</title>
<path fill="none" stroke="black" d="M496.41,-120.51C489.91,-112.89 481.11,-102.59 473.29,-93.43"/>
<polygon fill="black" stroke="black" points="475.21,-91.91 468.81,-88.18 471.49,-95.09 475.21,-91.91"/>
<text xml:space="preserve" text-anchor="middle" x="489.55" y="-98.2" font-family="Helvetica,sans-Serif" font-size="9.00">No</text>
</g>
<!-- n14 -->
<g id="node15" class="node">
<title>n14</title>
<polygon fill="none" stroke="black" points="614,-36 560,-36 560,0 614,0 614,-36"/>
<text xml:space="preserve" text-anchor="middle" x="587" y="-13.55" font-family="Helvetica,sans-Serif" font-size="11.00">j = j + 1</text>
</g>
<!-- n13&#45;&gt;n14 -->
<g id="edge17" class="edge">
<title>n13&#45;&gt;n14</title>
<path fill="none" stroke="black" d="M561.2,-52.73C563.62,-49.58 566.18,-46.23 568.71,-42.92"/>
<polygon fill="black" stroke="black" points="570.58,-44.5 572.89,-37.45 566.69,-41.52 570.58,-44.5"/>
</g>
<!-- n14&#45;&gt;n12 -->
<g id="edge18" class="edge">
<title>n14&#45;&gt;n12</title>
<path fill="none" stroke="black" d="M597.9,-36.41C605.77,-51.43 613.35,-73.13 603,-89 588.38,-111.42 559.07,-122.16 536.48,-127.26"/>
<polygon fill="black" stroke="black" points="536.04,-124.85 529.67,-128.65 537.02,-129.65 536.04,-124.85"/>
</g>
</g>
</svg>
