<?xml version="1.0" encoding="UTF-8" standalone="no"?>
<!DOCTYPE svg PUBLIC "-//W3C//DTD SVG 1.1//EN"
 "http://www.w3.org/Graphics/SVG/1.1/DTD/svg11.dtd">
<!-- Generated by graphviz version 15.0.0 (20260523.1842)
 -->
<!-- Pages: 1 -->
<svg width="129pt" height="388pt"
 viewBox="0.00 0.00 129.00 388.00" xmlns="http://www.w3.org/2000/svg" xmlns:xlink="http://www.w3.org/1999/xlink">
<g id="graph0" class="graph" transform="scale(1 1) rotate(0) translate(4 383.75)">
<polygon fill="white" stroke="none" points="-4,4 -4,-383.75 124.63,-383.75 124.63,4 -4,4"/>
<!-- n0 -->
<g id="node1" class="node">
<title>n0</title>
<ellipse fill="none" stroke="black" cx="84" cy="-361.75" rx="27" ry="18"/>
<text xml:space="preserve" text-anchor="middle" x="84" y="-357.3" font-family="Helvetica,sans-Serif" font-size="11.00">Start</text>
</g>
<!-- n1 -->
<g id="node2" class="node">
<title>n1</title>
<polygon fill="none" stroke="black" points="120.63,-312.75 62.36,-312.75 47.37,-276.75 105.64,-276.75 120.63,-312.75"/>
<text xml:space="preserve" text-anchor="middle" x="84" y="-290.3" font-family="Helvetica,sans-Serif" font-size="11.00">read n</text>
</g>
<!-- n0&#45;&gt;n1 -->
<g id="edge1" class="edge">
<title>n0&#45;&gt;n1</title>
<path fill="none" stroke="black" d="M84,-343.33C84,-336.63 84,-328.83 84,-321.5"/>
<polygon fill="black" stroke="black" points="86.45,-321.73 84,-314.73 81.55,-321.73 86.45,-321.73"/>
</g>
<!-- n2 -->
<g id="node3" class="node">
<title>n2</title>
<polygon fill="none" stroke="black" points="84,-245.75 53.68,-227.75 84,-209.75 114.32,-227.75 84,-245.75"/>
<text xml:space="preserve" text-anchor="middle" x="84" y="-223.3" font-family="Helvetica,sans-Serif" font-size="11.00">n &lt; 0</text>
</g>
<!-- n1&#45;&gt;n2 -->
<g id="edge2" class="edge">
<title>n1&#45;&gt;n2</title>
<path fill="none" stroke="black" d="M84,-276.33C84,-269.63 84,-261.83 84,-254.5"/>
<polygon fill="black" stroke="black" points="86.45,-254.73 84,-247.73 81.55,-254.73 86.45,-254.73"/>
</g>
<!-- n3 -->
<g id="node4" class="node">
<title>n3</title>
<polygon fill="none" stroke="black" points="54,-170 0,-170 0,-134 54,-134 54,-170"/>
<text xml:space="preserve" text-anchor="middle" x="27" y="-147.55" font-family="Helvetica,sans-Serif" font-size="11.00">n = &#45;n</text>
</g>
<!-- n2&#45;&gt;n3 -->
<g id="edge3" class="edge">
<title>n2&#45;&gt;n3</title>
<path fill="none" stroke="black" d="M74.84,-214.9C66.91,-204.64 55.19,-189.48 45.34,-176.73"/>
<polygon fill="black" stroke="black" points="47.53,-175.56 41.31,-171.52 43.65,-178.55 47.53,-175.56"/>
<text xml:space="preserve" text-anchor="middle" x="66.04" y="-186.2" font-family="Helvetica,sans-Serif" font-size="9.00">Yes</text>
</g>
<!-- n4 -->
<g id="node5" class="node">
<title>n4</title>
<polygon fill="none" stroke="black" points="100.98,-103 43.74,-103 29.02,-67 86.26,-67 100.98,-103"/>
<text xml:space="preserve" text-anchor="middle" x="65" y="-80.55" font-family="Helvetica,sans-Serif" font-size="11.00">print n</text>
</g>
<!-- n2&#45;&gt;n4 -->
<g id="edge5" class="edge">
<title>n2&#45;&gt;n4</title>
<path fill="none" stroke="black" d="M82.13,-210.48C81.23,-202.76 80.1,-193.4 79,-185 75.73,-159.96 71.66,-131.41 68.75,-111.43"/>
<polygon fill="black" stroke="black" points="71.19,-111.22 67.76,-104.65 66.35,-111.93 71.19,-111.22"/>
<text xml:space="preserve" text-anchor="middle" x="83" y="-148.32" font-family="Helvetica,sans-Serif" font-size="9.00">No</text>
</g>
<!-- n3&#45;&gt;n4 -->
<g id="edge4" class="edge">
<title>n3&#45;&gt;n4</title>
<path fill="none" stroke="black" d="M37.18,-133.58C41.27,-126.59 46.06,-118.39 50.5,-110.8"/>
<polygon fill="black" stroke="black" points="52.61,-112.05 54.02,-104.77 48.38,-109.58 52.61,-112.05"/>
</g>
<!-- n5 -->
<g id="node6" class="node">
<title>n5</title>
<ellipse fill="none" stroke="black" cx="65" cy="-18" rx="27" ry="18"/>
<text xml:space="preserve" text-anchor="middle" x="65" y="-13.55" font-family="Helvetica,sans-Serif" font-size="11.00">End</text>
</g>
<!-- n4&#45;&gt;n5 -->
<g id="edge6" class="edge">
<title>n4&#45;&gt;n5</title>
<path fill="none" stroke="black" d="M65,-66.58C65,-59.88 65,-52.08 65,-44.75"/>
<polygon fill="black" stroke="black" points="67.45,-44.98 65,-37.98 62.55,-44.98 67.45,-44.98"/>
</g>
</g>
</svg>
