<svg xmlns="http://www.w3.org/2000/svg" xmlns:xlink="http://www.w3.org/1999/xlink" width="340" height="708" viewBox="0 0 255 531"><g id="graph0" class="graph" transform="scale(1 1) rotate(0) translate(4 526.5)"><polygon fill="#fff" stroke="none" points="-4 4 -4 -526.5 251.4 -526.5 251.4 4 -4 4"/><g id="node1" class="node"><title>n0</title><ellipse cx="182.88" cy="-504.5" fill="none" stroke="#000" rx="27" ry="18"/><text x="182.88" y="-500.05" font-family="Helvetica,sans-Serif" font-size="11" text-anchor="middle" xml:space="preserve">Start</text></g><g id="node2" class="node"><title>n1</title><polygon fill="none" stroke="#000" points="219.52 -455.5 161.24 -455.5 146.25 -419.5 204.53 -419.5 219.52 -455.5"/><text x="182.88" y="-433.05" font-family="Helvetica,sans-Serif" font-size="11" text-anchor="middle" xml:space="preserve">read n</text></g><g id="edge1" class="edge"><title>n0-&gt;n1</title><path fill="none" stroke="#000" d="M182.88,-486.08C182.88,-479.38 182.88,-471.58 182.88,-464.25"/><polygon fill="#000" stroke="#000" points="185.34 -464.48 182.89 -457.48 180.44 -464.48 185.34 -464.48"/></g><g id="node3" class="node"><title>n2</title><polygon fill="none" stroke="#000" points="209.88 -388.5 155.88 -388.5 155.88 -352.5 209.88 -352.5 209.88 -388.5"/><text x="182.88" y="-366.05" font-family="Helvetica,sans-Serif" font-size="11" text-anchor="middle" xml:space="preserve">sum = 0</text></g><g id="edge2" class="edge"><title>n1-&gt;n2</title><path fill="none" stroke="#000" d="M182.88,-419.08C182.88,-412.38 182.88,-404.58 182.88,-397.25"/><polygon fill="#000" stroke="#000" points="185.34 -397.48 182.89 -390.48 180.44 -397.48 185.34 -397.48"/></g><g id="node4" class="node"><title>n3</title><polygon fill="none" stroke="#000" points="209.88 -321.5 155.88 -321.5 155.88 -285.5 209.88 -285.5 209.88 -321.5"/><text x="182.88" y="-299.05" font-family="Helvetica,sans-Serif" font-size="11" text-anchor="middle" xml:space="preserve">i = 1</text></g><g id="edge3" class="edge"><title>n2-&gt;n3</title><path fill="none" stroke="#000" d="M182.88,-352.08C182.88,-345.38 182.88,-337.58 182.88,-330.25"/><polygon fill="#000" stroke="#000" points="185.34 -330.48 182.89 -323.48 180.44 -330.48 185.34 -330.48"/></g><g id="node5" class="node"><title>n4</title><polygon fill="none" stroke="#000" points="182.88 -254.5 150.06 -236.5 182.88 -218.5 215.71 -236.5 182.88 -254.5"/><text x="182.88" y="-232.05" font-family="Helvetica,sans-Serif" font-size="11" text-anchor="middle" xml:space="preserve">i &lt;= n</text></g><g id="edge4" class="edge"><title>n3-&gt;n4</title><path fill="none" stroke="#000" d="M182.88,-285.08C182.88,-278.38 182.88,-270.58 182.88,-263.25"/><polygon fill="#000" stroke="#000" points="185.34 -263.48 182.89 -256.48 180.44 -263.48 185.34 -263.48"/></g><g id="node6" class="node"><title>n5</title><polygon fill="none" stroke="#000" points="63.88 -178.75 17.89 -160.75 63.88 -142.75 109.88 -160.75 63.88 -178.75"/><text x="63.88" y="-156.3" font-family="Helvetica,sans-Serif" font-size="11" text-anchor="middle" xml:space="preserve">i % 2 is 0</text></g><g id="edge5" class="edge"><title>n4-&gt;n5</title><path fill="none" stroke="#000" d="M168.29,-226.46C148.27,-214.05 112.02,-191.58 87.95,-176.67"/><polygon fill="#000" stroke="#000" points="89.43 -174.7 82.19 -173.09 86.85 -178.86 89.43 -174.7"/><text x="137.63" y="-194.95" font-family="Helvetica,sans-Serif" font-size="9" text-anchor="middle" xml:space="preserve">Yes</text></g><g id="node9" class="node"><title>n8</title><polygon fill="none" stroke="#000" points="231.22 -178.75 154.33 -178.75 134.55 -142.75 211.44 -142.75 231.22 -178.75"/><text x="182.88" y="-156.3" font-family="Helvetica,sans-Serif" font-size="11" text-anchor="middle" xml:space="preserve">print sum</text></g><g id="edge10" class="edge"><title>n4-&gt;n8</title><path fill="none" stroke="#000" d="M182.88,-218.02C182.88,-208.93 182.88,-197.64 182.88,-187.56"/><polygon fill="#000" stroke="#000" points="185.34 -187.62 182.89 -180.62 180.44 -187.62 185.34 -187.62"/><text x="188.88" y="-194.95" font-family="Helvetica,sans-Serif" font-size="9" text-anchor="middle" xml:space="preserve">No</text></g><g id="node7" class="node"><title>n6</title><polygon fill="none" stroke="#000" points="79.77 -103 0 -103 0 -67 79.77 -67 79.77 -103"/><text x="39.88" y="-80.55" font-family="Helvetica,sans-Serif" font-size="11" text-anchor="middle" xml:space="preserve">sum = sum + i</text></g><g id="edge6" class="edge"><title>n5-&gt;n6</title><path fill="none" stroke="#000" d="M58.91,-144.47C55.8,-134.92 51.73,-122.39 48.14,-111.38"/><polygon fill="#000" stroke="#000" points="50.49 -110.67 45.99 -104.77 45.83 -112.18 50.49 -110.67"/><text x="60.45" y="-119.2" font-family="Helvetica,sans-Serif" font-size="9" text-anchor="middle" xml:space="preserve">Yes</text></g><g id="node8" class="node"><title>n7</title><polygon fill="none" stroke="#000" points="156.88 -36 102.88 -36 102.88 0 156.88 0 156.88 -36"/><text x="129.88" y="-13.55" font-family="Helvetica,sans-Serif" font-size="11" text-anchor="middle" xml:space="preserve">i = i + 1</text></g><g id="edge8" class="edge"><title>n5-&gt;n7</title><path fill="none" stroke="#000" d="M71.15,-145.35C76.89,-133.92 85.03,-117.5 91.88,-103 101.17,-83.35 111.3,-60.92 118.76,-44.18"/><polygon fill="#000" stroke="#000" points="120.97 -45.23 121.58 -37.84 116.5 -43.24 120.97 -45.23"/><text x="114.39" y="-81.33" font-family="Helvetica,sans-Serif" font-size="9" text-anchor="middle" xml:space="preserve">No</text></g><g id="edge7" class="edge"><title>n6-&gt;n7</title><path fill="none" stroke="#000" d="M64,-66.58C74.7,-58.86 87.41,-49.67 98.81,-41.45"/><polygon fill="#000" stroke="#000" points="100.23 -43.44 104.47 -37.35 97.36 -39.47 100.23 -43.44"/></g><g id="edge9" class="edge"><title>n7-&gt;n4</title><path fill="none" stroke="#000" d="M157.14,-23.93C181.34,-29.82 215.61,-42.18 233.88,-67 239.81,-75.05 253.95,-155.65 243.88,-178.75 236.02,-196.82 219.24,-211.73 205.27,-221.73"/><polygon fill="#000" stroke="#000" points="203.94 -219.67 199.54 -225.64 206.7 -223.72 203.94 -219.67"/></g><g id="node10" class="node"><title>n9</title><ellipse cx="193.88" cy="-85" fill="none" stroke="#000" rx="27" ry="18"/><text x="193.88" y="-80.55" font-family="Helvetica,sans-Serif" font-size="11" text-anchor="middle" xml:space="preserve">End</text></g><g id="edge11" class="edge"><title>n8-&gt;n9</title><path fill="none" stroke="#000" d="M185.49,-142.27C186.86,-133.09 188.57,-121.66 190.08,-111.5"/><polygon fill="#000" stroke="#000" points="192.46 -112.13 191.07 -104.85 187.62 -111.41 192.46 -112.13"/></g></g></svg>