<?xml version="1.0" encoding="UTF-8" standalone="no"?>
<!DOCTYPE svg PUBLIC "-//W3C//DTD SVG 1.1//EN"
 "http://www.w3.org/Graphics/SVG/1.1/DTD/svg11.dtd">
<!-- Generated by graphviz version 15.0.0 (20260523.1842)
 -->
<!-- Pages: 1 -->
<svg width="294pt" height="388pt"
 viewBox="0.00 0.00 294.00 388.00" xmlns="http://www.w3.org/2000/svg" xmlns:xlink="http://www.w3.org/1999/xlink">
<g id="graph0" class="graph" transform="scale(1 1) rotate(0) translate(4 383.75)">
<polygon fill="white" stroke="none" points="-4,4 -4,-383.75 290.09,-383.75 290.09,4 -4,4"/>
<!-- n0 -->
<g id="node1" class="node">
<title>n0</title>
<ellipse fill="none" stroke="black" cx="151.76" cy="-361.75" rx="27" ry="18"/>
<text xml:space="preserve" text-anchor="middle" x="151.76" y="-357.3" font-family="Helvetica,sans-Serif" font-size="11.00">Start</text>
</g>
<!-- n1 -->
<g id="node2" class="node">
<title>n1</title>
<polygon fill="none" stroke="black" points="178.76,-312.75 124.76,-312.75 124.76,-276.75 178.76,-276.75 178.76,-312.75"/>
<text xml:space="preserve" text-anchor="middle" x="151.76" y="-290.3" font-family="Helvetica,sans-Serif" font-size="11.00">total = 0</text>
</g>
<!-- n0&#45;&gt;n1 -->
<g id="edge1" class="edge">
<title>n0&#45;&gt;n1</title>
<path fill="none" stroke="black" d="M151.76,-343.33C151.76,-336.63 151.76,-328.83 151.76,-321.5"/>
<polygon fill="black" stroke="black" points="154.21,-321.73 151.76,-314.73 149.31,-321.73 154.21,-321.73"/>
</g>
<!-- n2 -->
<g id="node3" class="node">
<title>n2</title>
<polygon fill="none" stroke="black" points="214.39,-245.75 114.76,-245.75 89.13,-209.75 188.76,-209.75 214.39,-245.75"/>
<text xml:space="preserve" text-anchor="middle" x="151.76" y="-223.3" font-family="Helvetica,sans-Serif" font-size="11.00">read amount</text>
</g>
<!-- n1&#45;&gt;n2 -->
<g id="edge2" class="edge">
<title>n1&#45;&gt;n2</title>
<path fill="none" stroke="black" d="M151.76,-276.33C151.76,-269.63 151.76,-261.83 151.76,-254.5"/>
<polygon fill="black" stroke="black" points="154.21,-254.73 151.76,-247.73 149.31,-254.73 154.21,-254.73"/>
</g>
<!-- n3 -->
<g id="node4" class="node">
<title>n3</title>
<polygon fill="none" stroke="black" points="151.76,-178.75 93.86,-160.75 151.76,-142.75 209.66,-160.75 151.76,-178.75"/>
<text xml:space="preserve" text-anchor="middle" x="151.76" y="-156.3" font-family="Helvetica,sans-Serif" font-size="11.00">amount != 0</text>
</g>
<!-- n2&#45;&gt;n3 -->
<g id="edge3" class="edge">
<title>n2&#45;&gt;n3</title>
<path fill="none" stroke="black" d="M151.76,-209.33C151.76,-202.63 151.76,-194.83 151.76,-187.5"/>
<polygon fill="black" stroke="black" points="154.21,-187.73 151.76,-180.73 149.31,-187.73 154.21,-187.73"/>
</g>
<!-- n4 -->
<g id="node5" class="node">
<title>n4</title>
<polygon fill="none" stroke="black" points="113.52,-103 0,-103 0,-67 113.52,-67 113.52,-103"/>
<text xml:space="preserve" text-anchor="middle" x="56.76" y="-80.55" font-family="Helvetica,sans-Serif" font-size="11.00">total = total + amount</text>
</g>
<!-- n3&#45;&gt;n4 -->
<g id="edge4" class="edge">
<title>n3&#45;&gt;n4</title>
<path fill="none" stroke="black" d="M135.64,-147.24C121.9,-136.57 101.82,-120.98 85.36,-108.2"/>
<polygon fill="black" stroke="black" points="87.25,-106.57 80.22,-104.21 84.24,-110.44 87.25,-106.57"/>
<text xml:space="preserve" text-anchor="middle" x="117.07" y="-119.2" font-family="Helvetica,sans-Serif" font-size="9.00">Yes</text>
</g>
<!-- n6 -->
<g id="node7" class="node">
<title>n6</title>
<polygon fill="none" stroke="black" points="286.09,-103 209.21,-103 189.43,-67 266.31,-67 286.09,-103"/>
<text xml:space="preserve" text-anchor="middle" x="237.76" y="-80.55" font-family="Helvetica,sans-Serif" font-size="11.00">print total</text>
</g>
<!-- n3&#45;&gt;n6 -->
<g id="edge7" class="edge">
<title>n3&#45;&gt;n6</title>
<path fill="none" stroke="black" d="M166.74,-146.9C179.04,-136.36 196.75,-121.17 211.4,-108.6"/>
<polygon fill="black" stroke="black" points="212.61,-110.8 216.33,-104.38 209.42,-107.08 212.61,-110.8"/>
<text xml:space="preserve" text-anchor="middle" x="205.91" y="-119.2" font-family="Helvetica,sans-Serif" font-size="9.00">No</text>
</g>
<!-- n5 -->
<g id="node6" class="node">
<title>n5</title>
<polygon fill="none" stroke="black" points="168.39,-36 68.76,-36 43.13,0 142.76,0 168.39,-36"/>
<text xml:space="preserve" text-anchor="middle" x="105.76" y="-13.55" font-family="Helvetica,sans-Serif" font-size="11.00">read amount</text>
</g>
<!-- n4&#45;&gt;n5 -->
<g id="edge5" class="edge">
<title>n4&#45;&gt;n5</title>
<path fill="none" stroke="black" d="M69.89,-66.58C75.38,-59.3 81.86,-50.71 87.78,-42.85"/>
<polygon fill="black" stroke="black" points="89.42,-44.74 91.68,-37.68 85.51,-41.79 89.42,-44.74"/>
</g>
<!-- n5&#45;&gt;n3 -->
<g id="edge6" class="edge">
<title>n5&#45;&gt;n3</title>
<path fill="none" stroke="black" d="M113.49,-36.13C117.44,-45.21 122.15,-56.59 125.76,-67 133.7,-89.88 140.98,-116.56 145.8,-135.41"/>
<polygon fill="black" stroke="black" points="143.38,-135.83 147.47,-142.01 148.13,-134.63 143.38,-135.83"/>
</g>
<!-- n7 -->
<g id="node8" class="node">
<title>n7</title>
<ellipse fill="none" stroke="black" cx="237.76" cy="-18" rx="27" ry="18"/>
<text xml:space="preserve" text-anchor="middle" x="237.76" y="-13.55" font-family="Helvetica,sans-Serif" font-size="11.00">End</text>
</g>
<!-- n6&#45;&gt;n7 -->
<g id="edge8" class="edge">
<title>n6&#45;&gt;n7</title>
<path fill="none" stroke="black" d="M237.76,-66.58C237.76,-59.88 237.76,-52.08 237.76,-44.75"/>
<polygon fill="black" stroke="black" points="240.21,-44.98 237.76,-37.98 235.31,-44.98 240.21,-44.98"/>
</g>
</g>
</svg>
