<?xml version="1.0" encoding="UTF-8" standalone="no"?>
<!DOCTYPE svg PUBLIC "-//W3C//DTD SVG 1.1//EN"
 "http://www.w3.org/Graphics/SVG/1.1/DTD/svg11.dtd">
<!-- Generated by graphviz version 15.0.0 (20260523.1842)
 -->
<!-- Pages: 1 -->
<svg width="300pt" height="740pt"
 viewBox="0.00 0.00 300.00 740.00" xmlns="http://www.w3.org/2000/svg" xmlns:xlink="http://www.w3.org/1999/xlink">
<g id="graph0" class="graph" transform="scale(1 1) rotate(0) translate(4 736.25)">
<polygon fill="white" stroke="none" points="-4,4 -4,-736.25 296.01,-736.25 296.01,4 -4,4"/>
<!-- n0 -->
<g id="node1" class="node">
<title>n0</title>
<ellipse fill="none" stroke="black" cx="199.01" cy="-714.25" rx="27" ry="18"/>
<text xml:space="preserve" text-anchor="middle" x="199.01" y="-709.8" font-family="Helvetica,sans-Serif" font-size="11.00">Start</text>
</g>
<!-- n1 -->
<g id="node2" class="node">
<title>n1</title>
<polygon fill="none" stroke="black" points="235.64,-665.25 177.37,-665.25 162.38,-629.25 220.65,-629.25 235.64,-665.25"/>
<text xml:space="preserve" text-anchor="middle" x="199.01" y="-642.8" font-family="Helvetica,sans-Serif" font-size="11.00">read n</text>
</g>
<!-- n0&#45;&gt;n1 -->
<g id="edge1" class="edge">
<title>n0&#45;&gt;n1</title>
<path fill="none" stroke="black" d="M199.01,-695.83C199.01,-689.13 199.01,-681.33 199.01,-674"/>
<polygon fill="black" stroke="black" points="201.46,-674.23 199.01,-667.23 196.56,-674.23 201.46,-674.23"/>
</g>
<!-- n2 -->
<g id="node3" class="node">
<title>n2</title>
<polygon fill="none" stroke="black" points="228.39,-598.25 169.62,-598.25 169.62,-562.25 228.39,-562.25 228.39,-598.25"/>
<text xml:space="preserve" text-anchor="middle" x="199.01" y="-575.8" font-family="Helvetica,sans-Serif" font-size="11.00">evens = 0</text>
</g>
<!-- n1&#45;&gt;n2 -->
<g id="edge2" class="edge">
<title>n1&#45;&gt;n2</title>
<path fill="none" stroke="black" d="M199.01,-628.83C199.01,-622.13 199.01,-614.33 199.01,-607"/>
<polygon fill="black" stroke="black" points="201.46,-607.23 199.01,-600.23 196.56,-607.23 201.46,-607.23"/>
</g>
<!-- n3 -->
<g id="node4" class="node">
<title>n3</title>
<polygon fill="none" stroke="black" points="226.01,-531.25 172.01,-531.25 172.01,-495.25 226.01,-495.25 226.01,-531.25"/>
<text xml:space="preserve" text-anchor="middle" x="199.01" y="-508.8" font-family="Helvetica,sans-Serif" font-size="11.00">big = 0</text>
</g>
<!-- n2&#45;&gt;n3 -->
<g id="edge3" class="edge">
<title>n2&#45;&gt;n3</title>
<path fill="none" stroke="black" d="M199.01,-561.83C199.01,-555.13 199.01,-547.33 199.01,-540"/>
<polygon fill="black" stroke="black" points="201.46,-540.23 199.01,-533.23 196.56,-540.23 201.46,-540.23"/>
</g>
<!-- n4 -->
<g id="node5" class="node">
<title>n4</title>
<polygon fill="none" stroke="black" points="199.01,-464.25 168.69,-446.25 199.01,-428.25 229.33,-446.25 199.01,-464.25"/>
<text xml:space="preserve" text-anchor="middle" x="199.01" y="-441.8" font-family="Helvetica,sans-Serif" font-size="11.00">n &gt; 0</text>
</g>
<!-- n3&#45;&gt;n4 -->
<g id="edge4" class="edge">
<title>n3&#45;&gt;n4</title>
<path fill="none" stroke="black" d="M199.01,-494.83C199.01,-488.13 199.01,-480.33 199.01,-473"/>
<polygon fill="black" stroke="black" points="201.46,-473.23 199.01,-466.23 196.56,-473.23 201.46,-473.23"/>
</g>
<!-- n5 -->
<g id="node6" class="node">
<title>n5</title>
<polygon fill="none" stroke="black" points="119.02,-388.5 55,-388.5 55,-352.5 119.02,-352.5 119.02,-388.5"/>
<text xml:space="preserve" text-anchor="middle" x="87.01" y="-366.05" font-family="Helvetica,sans-Serif" font-size="11.00">d = n % 10</text>
</g>
<!-- n4&#45;&gt;n5 -->
<g id="edge5" class="edge">
<title>n4&#45;&gt;n5</title>
<path fill="none" stroke="black" d="M185.28,-436.21C169.15,-425.59 141.84,-407.6 120.09,-393.28"/>
<polygon fill="black" stroke="black" points="121.71,-391.42 114.52,-389.61 119.01,-395.51 121.71,-391.42"/>
<text xml:space="preserve" text-anchor="middle" x="156.84" y="-404.7" font-family="Helvetica,sans-Serif" font-size="9.00">Yes</text>
</g>
<!-- n11 -->
<g id="node12" class="node">
<title>n11</title>
<polygon fill="none" stroke="black" points="254.49,-388.5 166.23,-388.5 143.53,-352.5 231.79,-352.5 254.49,-388.5"/>
<text xml:space="preserve" text-anchor="middle" x="199.01" y="-366.05" font-family="Helvetica,sans-Serif" font-size="11.00">print evens</text>
</g>
<!-- n4&#45;&gt;n11 -->
<g id="edge14" class="edge">
<title>n4&#45;&gt;n11</title>
<path fill="none" stroke="black" d="M199.01,-427.77C199.01,-418.68 199.01,-407.39 199.01,-397.31"/>
<polygon fill="black" stroke="black" points="201.46,-397.37 199.01,-390.37 196.56,-397.37 201.46,-397.37"/>
<text xml:space="preserve" text-anchor="middle" x="205.01" y="-404.7" font-family="Helvetica,sans-Serif" font-size="9.00">No</text>
</g>
<!-- n6 -->
<g id="node7" class="node">
<title>n6</title>
<polygon fill="none" stroke="black" points="87.01,-321.5 37.88,-303.5 87.01,-285.5 136.14,-303.5 87.01,-321.5"/>
<text xml:space="preserve" text-anchor="middle" x="87.01" y="-299.05" font-family="Helvetica,sans-Serif" font-size="11.00">d % 2 is 0</text>
</g>
<!-- n5&#45;&gt;n6 -->
<g id="edge6" class="edge">
<title>n5&#45;&gt;n6</title>
<path fill="none" stroke="black" d="M87.01,-352.08C87.01,-345.38 87.01,-337.58 87.01,-330.25"/>
<polygon fill="black" stroke="black" points="89.46,-330.48 87.01,-323.48 84.56,-330.48 89.46,-330.48"/>
</g>
<!-- n7 -->
<g id="node8" class="node">
<title>n7</title>
<polygon fill="none" stroke="black" points="100.02,-245.75 0,-245.75 0,-209.75 100.02,-209.75 100.02,-245.75"/>
<text xml:space="preserve" text-anchor="middle" x="50.01" y="-223.3" font-family="Helvetica,sans-Serif" font-size="11.00">evens = evens + 1</text>
</g>
<!-- n6&#45;&gt;n7 -->
<g id="edge7" class="edge">
<title>n6&#45;&gt;n7</title>
<path fill="none" stroke="black" d="M79.7,-287.93C74.81,-278.17 68.24,-265.08 62.52,-253.7"/>
<polygon fill="black" stroke="black" points="64.74,-252.66 59.42,-247.5 60.36,-254.85 64.74,-252.66"/>
<text xml:space="preserve" text-anchor="middle" x="77.85" y="-261.95" font-family="Helvetica,sans-Serif" font-size="9.00">Yes</text>
</g>
<!-- n8 -->
<g id="node9" class="node">
<title>n8</title>
<polygon fill="none" stroke="black" points="150.01,-178.75 119.69,-160.75 150.01,-142.75 180.33,-160.75 150.01,-178.75"/>
<text xml:space="preserve" text-anchor="middle" x="150.01" y="-156.3" font-family="Helvetica,sans-Serif" font-size="11.00">d &gt; 5</text>
</g>
<!-- n6&#45;&gt;n8 -->
<g id="edge9" class="edge">
<title>n6&#45;&gt;n8</title>
<path fill="none" stroke="black" d="M93.91,-287.59C99.19,-276.16 106.61,-259.98 113.01,-245.75 122.55,-224.51 133.25,-200.16 140.68,-183.16"/>
<polygon fill="black" stroke="black" points="142.89,-184.24 143.44,-176.84 138.4,-182.28 142.89,-184.24"/>
<text xml:space="preserve" text-anchor="middle" x="134.93" y="-224.07" font-family="Helvetica,sans-Serif" font-size="9.00">No</text>
</g>
<!-- n7&#45;&gt;n8 -->
<g id="edge8" class="edge">
<title>n7&#45;&gt;n8</title>
<path fill="none" stroke="black" d="M76.81,-209.33C93.22,-198.67 113.9,-185.22 129.1,-175.34"/>
<polygon fill="black" stroke="black" points="130.27,-177.5 134.81,-171.63 127.6,-173.39 130.27,-177.5"/>
</g>
<!-- n9 -->
<g id="node10" class="node">
<title>n9</title>
<polygon fill="none" stroke="black" points="185.77,-103 114.25,-103 114.25,-67 185.77,-67 185.77,-103"/>
<text xml:space="preserve" text-anchor="middle" x="150.01" y="-80.55" font-family="Helvetica,sans-Serif" font-size="11.00">big = big + 1</text>
</g>
<!-- n8&#45;&gt;n9 -->
<g id="edge10" class="edge">
<title>n8&#45;&gt;n9</title>
<path fill="none" stroke="black" d="M150.01,-142.27C150.01,-133.18 150.01,-121.89 150.01,-111.81"/>
<polygon fill="black" stroke="black" points="152.46,-111.87 150.01,-104.87 147.56,-111.87 152.46,-111.87"/>
<text xml:space="preserve" text-anchor="middle" x="157.13" y="-119.2" font-family="Helvetica,sans-Serif" font-size="9.00">Yes</text>
</g>
<!-- n10 -->
<g id="node11" class="node">
<title>n10</title>
<polygon fill="none" stroke="black" points="266.14,-36 205.88,-36 205.88,0 266.14,0 266.14,-36"/>
<text xml:space="preserve" text-anchor="middle" x="236.01" y="-13.55" font-family="Helvetica,sans-Serif" font-size="11.00">n = n // 10</text>
</g>
<!-- n8&#45;&gt;n10 -->
<g id="edge12" class="edge">
<title>n8&#45;&gt;n10</title>
<path fill="none" stroke="black" d="M160.94,-148.75C171.39,-137.81 187.12,-120.24 198.01,-103 209.76,-84.39 219.85,-61.54 226.68,-44.37"/>
<polygon fill="black" stroke="black" points="228.96,-45.27 229.21,-37.85 224.39,-43.49 228.96,-45.27"/>
<text xml:space="preserve" text-anchor="middle" x="223.02" y="-81.33" font-family="Helvetica,sans-Serif" font-size="9.00">No</text>
</g>
<!-- n9&#45;&gt;n10 -->
<g id="edge11" class="edge">
<title>n9&#45;&gt;n10</title>
<path fill="none" stroke="black" d="M173.06,-66.58C183.27,-58.86 195.42,-49.67 206.31,-41.45"/>
<polygon fill="black" stroke="black" points="207.59,-43.55 211.69,-37.38 204.63,-39.65 207.59,-43.55"/>
</g>
<!-- n10&#45;&gt;n4 -->
<g id="edge13" class="edge">
<title>n10&#45;&gt;n4</title>
<path fill="none" stroke="black" d="M263.03,-36.4C277.35,-47.92 292.01,-64.49 292.01,-84 292.01,-371.5 292.01,-371.5 292.01,-371.5 292.01,-405.26 253.92,-426.01 226.5,-436.58"/>
<polygon fill="black" stroke="black" points="225.89,-434.2 220.15,-438.9 227.57,-438.8 225.89,-434.2"/>
</g>
<!-- n12 -->
<g id="node13" class="node">
<title>n12</title>
<polygon fill="none" stroke="black" points="251.14,-321.5 182.53,-321.5 164.88,-285.5 233.49,-285.5 251.14,-321.5"/>
<text xml:space="preserve" text-anchor="middle" x="208.01" y="-299.05" font-family="Helvetica,sans-Serif" font-size="11.00">print big</text>
</g>
<!-- n11&#45;&gt;n12 -->
<g id="edge15" class="edge">
<title>n11&#45;&gt;n12</title>
<path fill="none" stroke="black" d="M201.42,-352.08C202.35,-345.38 203.43,-337.58 204.44,-330.25"/>
<polygon fill="black" stroke="black" points="206.85,-330.74 205.38,-323.47 202,-330.06 206.85,-330.74"/>
</g>
<!-- n13 -->
<g id="node14" class="node">
<title>n13</title>
<ellipse fill="none" stroke="black" cx="214.01" cy="-227.75" rx="27" ry="18"/>
<text xml:space="preserve" text-anchor="middle" x="214.01" y="-223.3" font-family="Helvetica,sans-Serif" font-size="11.00">End</text>
</g>
<!-- n12&#45;&gt;n13 -->
<g id="edge16" class="edge">
<title>n12&#45;&gt;n13</title>
<path fill="none" stroke="black" d="M209.43,-285.02C210.17,-275.93 211.09,-264.64 211.91,-254.56"/>
<polygon fill="black" stroke="black" points="214.35,-254.79 212.48,-247.61 209.47,-254.39 214.35,-254.79"/>
</g>
</g>
</svg>
