<?xml version="1.0" encoding="UTF-8" standalone="no"?>
<!DOCTYPE svg PUBLIC "-//W3C//DTD SVG 1.1//EN"
 "http://www.w3.org/Graphics/SVG/1.1/DTD/svg11.dtd">
<!-- Generated by graphviz version 15.0.0 (20260523.1842)
 -->
<!-- Pages: 1 -->
<svg width="292pt" height="388pt"
 viewBox="0.00 0.00 292.00 388.00" xmlns="http://www.w3.org/2000/svg" xmlns:xlink="http://www.w3.org/1999/xlink">
<g id="graph0" class="graph" transform="scale(1 1) rotate(0) translate(4 383.75)">
<polygon fill="white" stroke="none" points="-4,4 -4,-383.75 287.97,-383.75 287.97,4 -4,4"/>
<!-- n0 -->
<g id="node1" class="node">
<title>n0</title>
<ellipse fill="none" stroke="black" cx="149.63" cy="-361.75" rx="27" ry="18"/>
<text xml:space="preserve" text-anchor="middle" x="149.63" y="-357.3" font-family="Helvetica,sans-Serif" font-size="11.00">Start</text>
</g>
<!-- n1 -->
<g id="node2" class="node">
<title>n1</title>
<polygon fill="none" stroke="black" points="186.27,-312.75 127.99,-312.75 113,-276.75 171.28,-276.75 186.27,-312.75"/>
<text xml:space="preserve" text-anchor="middle" x="149.63" y="-290.3" font-family="Helvetica,sans-Serif" font-size="11.00">read n</text>
</g>
<!-- n0&#45;&gt;n1 -->
<g id="edge1" class="edge">
<title>n0&#45;&gt;n1</title>
<path fill="none" stroke="black" d="M149.63,-343.33C149.63,-336.63 149.63,-328.83 149.63,-321.5"/>
<polygon fill="black" stroke="black" points="152.09,-321.73 149.64,-314.73 147.19,-321.73 152.09,-321.73"/>
</g>
<!-- n2 -->
<g id="node3" class="node">
<title>n2</title>
<polygon fill="none" stroke="black" points="176.63,-245.75 122.63,-245.75 122.63,-209.75 176.63,-209.75 176.63,-245.75"/>
<text xml:space="preserve" text-anchor="middle" x="149.63" y="-223.3" font-family="Helvetica,sans-Serif" font-size="11.00">sum = 0</text>
</g>
<!-- n1&#45;&gt;n2 -->
<g id="edge2" class="edge">
<title>n1&#45;&gt;n2</title>
<path fill="none" stroke="black" d="M149.63,-276.33C149.63,-269.63 149.63,-261.83 149.63,-254.5"/>
<polygon fill="black" stroke="black" points="152.09,-254.73 149.64,-247.73 147.19,-254.73 152.09,-254.73"/>
</g>
<!-- n3 -->
<g id="node4" class="node">
<title>n3</title>
<polygon fill="none" stroke="black" points="149.63,-178.75 119.32,-160.75 149.63,-142.75 179.95,-160.75 149.63,-178.75"/>
<text xml:space="preserve" text-anchor="middle" x="149.63" y="-156.3" font-family="Helvetica,sans-Serif" font-size="11.00">n &gt; 0</text>
</g>
<!-- n2&#45;&gt;n3 -->
<g id="edge3" class="edge">
<title>n2&#45;&gt;n3</title>
<path fill="none" stroke="black" d="M149.63,-209.33C149.63,-202.63 149.63,-194.83 149.63,-187.5"/>
<polygon fill="black" stroke="black" points="152.09,-187.73 149.64,-180.73 147.19,-187.73 152.09,-187.73"/>
</g>
<!-- n4 -->
<g id="node5" class="node">
<title>n4</title>
<polygon fill="none" stroke="black" points="111.27,-103 0,-103 0,-67 111.27,-67 111.27,-103"/>
<text xml:space="preserve" text-anchor="middle" x="55.63" y="-80.55" font-family="Helvetica,sans-Serif" font-size="11.00">sum = sum + n % 10</text>
</g>
<!-- n3&#45;&gt;n4 -->
<g id="edge4" class="edge">
<title>n3&#45;&gt;n4</title>
<path fill="none" stroke="black" d="M136.96,-149.8C123.48,-139.23 101.72,-122.16 84.1,-108.33"/>
<polygon fill="black" stroke="black" points="86.03,-106.73 79.01,-104.34 83,-110.59 86.03,-106.73"/>
<text xml:space="preserve" text-anchor="middle" x="115.39" y="-119.2" font-family="Helvetica,sans-Serif" font-size="9.00">Yes</text>
</g>
<!-- n6 -->
<g id="node7" class="node">
<title>n6</title>
<polygon fill="none" stroke="black" points="283.97,-103 207.08,-103 187.3,-67 264.19,-67 283.97,-103"/>
<text xml:space="preserve" text-anchor="middle" x="235.63" y="-80.55" font-family="Helvetica,sans-Serif" font-size="11.00">print sum</text>
</g>
<!-- n3&#45;&gt;n6 -->
<g id="edge7" class="edge">
<title>n3&#45;&gt;n6</title>
<path fill="none" stroke="black" d="M161.59,-149.5C173.9,-138.94 193.46,-122.16 209.39,-108.5"/>
<polygon fill="black" stroke="black" points="210.65,-110.65 214.37,-104.24 207.46,-106.93 210.65,-110.65"/>
<text xml:space="preserve" text-anchor="middle" x="203.78" y="-119.2" font-family="Helvetica,sans-Serif" font-size="9.00">No</text>
</g>
<!-- n5 -->
<g id="node6" class="node">
<title>n5</title>
<polygon fill="none" stroke="black" points="148.77,-36 88.5,-36 88.5,0 148.77,0 148.77,-36"/>
<text xml:space="preserve" text-anchor="middle" x="118.63" y="-13.55" font-family="Helvetica,sans-Serif" font-size="11.00">n = n // 10</text>
</g>
<!-- n4&#45;&gt;n5 -->
<g id="edge5" class="edge">
<title>n4&#45;&gt;n5</title>
<path fill="none" stroke="black" d="M72.52,-66.58C79.72,-59.15 88.23,-50.37 95.97,-42.38"/>
<polygon fill="black" stroke="black" points="97.54,-44.29 100.65,-37.55 94.02,-40.88 97.54,-44.29"/>
</g>
<!-- n5&#45;&gt;n3 -->
<g id="edge6" class="edge">
<title>n5&#45;&gt;n3</title>
<path fill="none" stroke="black" d="M122.39,-36.06C127.91,-61.12 138.23,-107.99 144.47,-136.28"/>
<polygon fill="black" stroke="black" points="142.03,-136.63 145.93,-142.94 146.82,-135.58 142.03,-136.63"/>
</g>
<!-- n7 -->
<g id="node8" class="node">
<title>n7</title>
<ellipse fill="none" stroke="black" cx="235.63" cy="-18" rx="27" ry="18"/>
<text xml:space="preserve" text-anchor="middle" x="235.63" y="-13.55" font-family="Helvetica,sans-Serif" font-size="11.00">End</text>
</g>
<!-- n6&#45;&gt;n7 -->
<g id="edge8" class="edge">
<title>n6&#45;&gt;n7</title>
<path fill="none" stroke="black" d="M235.63,-66.58C235.63,-59.88 235.63,-52.08 235.63,-44.75"/>
<polygon fill="black" stroke="black" points="238.09,-44.98 235.64,-37.98 233.19,-44.98 238.09,-44.98"/>
</g>
</g>
</svg>
